/* XPM */
static char * menu_inactive_xpm[] = {
"15 15 71 1",
" 	c None",
".	c #6C90B4",
"+	c #6C90B5",
"@	c #6C8FB5",
"#	c #6A8FB4",
"$	c #6A8EB4",
"%	c #6B8FB4",
"&	c #6B8EB4",
"*	c #698EB3",
"=	c #698DB3",
"-	c #97B0CA",
";	c #97B1CA",
">	c #678DB2",
",	c #678CB2",
"'	c #86A3C1",
")	c #96B0C9",
"!	c #96AFC9",
"~	c #658BB1",
"{	c #668BB1",
"]	c #658BB2",
"^	c #648AB1",
"/	c #648AB0",
"(	c #83A2C1",
"_	c #94AEC8",
":	c #94AEC9",
"<	c #93AEC9",
"[	c #638AB1",
"}	c #6288B0",
"|	c #7295B8",
"1	c #92ADC8",
"2	c #92ACC8",
"3	c #6289B0",
"4	c #6187AF",
"5	c #6087B0",
"6	c #6087AF",
"7	c #6088AF",
"8	c #91ACC7",
"9	c #5F86AF",
"0	c #5E86AF",
"a	c #7F9FBF",
"b	c #8FABC7",
"c	c #5D85AE",
"d	c #5D84AE",
"e	c #6D91B6",
"f	c #8FAAC6",
"g	c #8FAAC7",
"h	c #5D85AD",
"i	c #5C84AD",
"j	c #5B83AD",
"k	c #5B84AD",
"l	c #7C9DBE",
"m	c #8EAAC6",
"n	c #8DAAC6",
"o	c #7D9DBE",
"p	c #5A82AC",
"q	c #5983AC",
"r	c #5A83AD",
"s	c #5A83AC",
"t	c #8DA8C5",
"u	c #8DA9C6",
"v	c #8DA9C5",
"w	c #5881AB",
"x	c #5881AC",
"y	c #5882AB",
"z	c #8BA8C5",
"A	c #5680AB",
"B	c #5680AA",
"C	c #678DB3",
"D	c #557EAA",
"E	c #557FAB",
"F	c #557FAA",
"..++@..++@..+.+",
"##$%&##$%&##$#$",
"*=---;----;--==",
">,')!!)!!)!!',,",
"~{]~{]~{]~{]]{]",
"^/(_::_<_::_(/[",
"}}|112211122|}3",
"456456567588656",
"900ab00000ba000",
"ccdefgchhggedcd",
"iijklmkkinoijij",
"ppqrsttsuvppqpq",
"wxyyw*zyz*wxyxy",
"ABAAAA>ACAABABA",
"DEFFFDEFFFDEFEF"};
