/* XPM */
static char * menu_active_xpm[] = {
"15 15 46 1",
" 	c None",
".	c #5A87B5",
"+	c #5986B5",
"@	c #5986B4",
"#	c #5885B3",
"$	c #5985B3",
"%	c #FFFFFF",
"&	c #5884B3",
"*	c #C7D6E6",
"=	c #5884B2",
"-	c #5883B2",
";	c #5783B2",
">	c #5783B1",
",	c #C7D6E5",
"'	c #5682B1",
")	c #5683B1",
"!	c #8EACCA",
"~	c #8EACCB",
"{	c #5582B0",
"]	c #5682B0",
"^	c #5581AF",
"/	c #C6D5E5",
"(	c #5581B0",
"_	c #5580AF",
":	c #5481AE",
"<	c #5480AF",
"[	c #8EABC9",
"}	c #5581AE",
"|	c #5380AE",
"1	c #C6D4E4",
"2	c #547FAE",
"3	c #C6D5E4",
"4	c #537FAD",
"5	c #5380AD",
"6	c #547FAD",
"7	c #537EAD",
"8	c #527FAD",
"9	c #527FAC",
"0	c #8CA9C8",
"a	c #8CAAC8",
"b	c #527DAB",
"c	c #527DAC",
"d	c #527EAB",
"e	c #527EAC",
"f	c #8CA8C8",
"g	c #517DAB",
"...++...++.++..",
"@@++@@@++@++@@@",
"#$%%%%%%%%%%%#$",
"#&*%%%%%%%%%*#&",
"=&-=&-&=&=&-&=&",
";>,%%%%%%%%%,;>",
"')!%%%%%%%%%~')",
"{{]{]{{]{]%%]{{",
"^^^/%^^^(^%/^^^",
"_:<[%%:<}%%[<_:",
"||||1%2||%3|2||",
"45645%%6%%64545",
"789740%9%a97478",
"bcdedbfd0ddedbc",
"ggbggggbggbgggg"};
