/* XPM */
static char * menu_pressed_xpm[] = {
"15 15 65 1",
" 	c None",
".	c #5A87B5",
"+	c #5986B5",
"@	c #5986B4",
"#	c #06355C",
"$	c #06355B",
"%	c #5885B3",
"&	c #5985B3",
"*	c #2C5980",
"=	c #5884B3",
"-	c #6992BB",
";	c #7298BF",
">	c #7297BF",
",	c #6991BB",
"'	c #5884B2",
")	c #214F77",
"!	c #06345A",
"~	c #06345B",
"{	c #214F78",
"]	c #5783B2",
"^	c #5783B1",
"/	c #467199",
"(	c #5682B1",
"_	c #5683B1",
":	c #5F88B4",
"<	c #7196BD",
"[	c #7196BC",
"}	c #063359",
"|	c #5F88B5",
"1	c #5582B0",
"2	c #5682B0",
"3	c #204E76",
"4	c #2B577D",
"5	c #5581AF",
"6	c #456F98",
"7	c #5581B0",
"8	c #5580AF",
"9	c #5481AE",
"0	c #5480AF",
"a	c #5E87B2",
"b	c #2B567C",
"c	c #5581AE",
"d	c #5380AE",
"e	c #668CB6",
"f	c #063358",
"g	c #063258",
"h	c #658DB6",
"i	c #547FAE",
"j	c #537FAD",
"k	c #5380AD",
"l	c #547FAD",
"m	c #4E769C",
"n	c #537EAD",
"o	c #527FAD",
"p	c #527FAC",
"q	c #5C84B1",
"r	c #4E759C",
"s	c #5C85B1",
"t	c #527DAB",
"u	c #527DAC",
"v	c #527EAB",
"w	c #527EAC",
"x	c #5B83B0",
"y	c #5B84B0",
"z	c #517DAB",
"...++...++.++..",
"@@##$$$##$##$@@",
"%&*$$$$$$$$$*%&",
"%=-;>;>;>;>;,%=",
"'=)!~!~!~!~!{'=",
"]^/!!!!!!!!!/]^",
"(_:<<<<[<<}!|(_",
"1123}11212}4211",
"5556}}557}}6555",
"890ab}90c}ba089",
"ddddefgdfghdidd",
"jkljkmflgmljkjk",
"nopnjqmprspnjno",
"tuvwvtxvyvvwvtu",
"zztzzzztzztzzzz"};
